<svg xmlns="http://www.w3.org/2000/svg" width="40.902" height="40.893" viewBox="0 0 40.902 40.893">
  <path id="Icon_awesome-instagram" data-name="Icon awesome-instagram" d="M20.45,12.2A10.484,10.484,0,1,0,30.934,22.684,10.468,10.468,0,0,0,20.45,12.2Zm0,17.3a6.816,6.816,0,1,1,6.816-6.816A6.829,6.829,0,0,1,20.45,29.5ZM33.809,11.771a2.445,2.445,0,1,1-2.445-2.445A2.44,2.44,0,0,1,33.809,11.771Zm6.944,2.482c-.155-3.276-.9-6.177-3.3-8.568s-5.292-3.139-8.568-3.3c-3.376-.192-13.5-.192-16.872,0-3.267.155-6.168.9-8.568,3.294S.3,10.968.138,14.244c-.192,3.376-.192,13.5,0,16.872.155,3.276.9,6.177,3.3,8.568s5.292,3.139,8.568,3.3c3.376.192,13.5.192,16.872,0,3.276-.155,6.177-.9,8.568-3.3s3.139-5.292,3.3-8.568c.192-3.376.192-13.486,0-16.863ZM36.391,34.738A6.9,6.9,0,0,1,32.5,38.625c-2.692,1.068-9.079.821-12.054.821s-9.371.237-12.054-.821a6.9,6.9,0,0,1-3.887-3.887c-1.068-2.692-.821-9.079-.821-12.054s-.237-9.371.821-12.054A6.9,6.9,0,0,1,8.4,6.743c2.692-1.068,9.079-.821,12.054-.821s9.371-.237,12.054.821a6.9,6.9,0,0,1,3.887,3.887c1.068,2.692.821,9.079.821,12.054S37.459,32.055,36.391,34.738Z" transform="translate(0.005 -2.238)" fill="rgba(0,0,0,0.5)"/>
</svg>
