<svg xmlns="http://www.w3.org/2000/svg" width="50.349" height="40.893" viewBox="0 0 50.349 40.893">
  <path id="Icon_awesome-twitter" data-name="Icon awesome-twitter" d="M45.173,13.572c.032.447.032.895.032,1.342,0,13.641-10.383,29.36-29.36,29.36A29.16,29.16,0,0,1,0,39.641a21.348,21.348,0,0,0,2.492.128A20.666,20.666,0,0,0,15.3,35.36,10.337,10.337,0,0,1,5.655,28.2a13.013,13.013,0,0,0,1.949.16,10.914,10.914,0,0,0,2.716-.351A10.32,10.32,0,0,1,2.045,17.885v-.128a10.392,10.392,0,0,0,4.664,1.31,10.334,10.334,0,0,1-3.195-13.8,29.331,29.331,0,0,0,21.277,10.8,11.649,11.649,0,0,1-.256-2.364,10.329,10.329,0,0,1,17.859-7.06,20.316,20.316,0,0,0,6.549-2.492,10.291,10.291,0,0,1-4.537,5.687,20.687,20.687,0,0,0,5.942-1.6,22.182,22.182,0,0,1-5.175,5.335Z" transform="translate(0 -3.381)" fill="rgba(0,0,0,0.5)"/>
</svg>
