<svg xmlns="http://www.w3.org/2000/svg" width="40.893" height="40.893" viewBox="0 0 40.893 40.893">
  <path id="Icon_ionic-logo-whatsapp" data-name="Icon ionic-logo-whatsapp" d="M23.067,2.25A20,20,0,0,0,2.992,22.17,19.714,19.714,0,0,0,5.873,32.456L2.25,43.143l11.114-3.531A20.109,20.109,0,0,0,43.143,22.17,20,20,0,0,0,23.067,2.25Zm9.982,27.485c-.472,1.171-2.608,2.239-3.551,2.289s-.968.73-6.1-1.5-8.22-7.653-8.463-8a9.845,9.845,0,0,1-1.894-5.336,5.688,5.688,0,0,1,1.954-4.174,1.966,1.966,0,0,1,1.39-.585c.4-.007.666-.012.965,0s.748-.063,1.136.971,1.318,3.574,1.437,3.833a.93.93,0,0,1,.009.892,3.486,3.486,0,0,1-.544.829c-.268.287-.564.643-.8.862-.267.243-.545.509-.265,1.029a15.362,15.362,0,0,0,2.718,3.627,14.006,14.006,0,0,0,4.025,2.676c.5.274.8.244,1.116-.085s1.336-1.437,1.7-1.932.7-.4,1.163-.213,2.935,1.511,3.439,1.785.839.413.959.63A4.216,4.216,0,0,1,33.049,29.735Z" transform="translate(-2.25 -2.25)" fill="rgba(0,0,0,0.5)"/>
</svg>
